<svg xmlns="http://www.w3.org/2000/svg" width="200" height="200" viewBox="0 0 200 200">
  <g fill="none" fill-rule="evenodd">
    <g transform="translate(37 45)">
      <path fill="#FFF" d="M87.937,69.294 C72.811,70.369 63.199,70.907 55.984,70.907 C48.77,70.907 34.277,70.369 12.505,69.294 L16.202,58.579 L21.494,48.623 L22.742,47.368 L35.19,47.368 L70.357,47.368 C75.102,47.368 80.803,50.316 82.484,54.645 L87.937,69.294 Z"/>
      <path fill="#1B7" d="M35.005,41.712 L75.246,41.712 C79.963,41.712 84.273,44.597 85.965,48.895 L92.3,64.952 L92.421,65.259 L93.462,67.9 C83.214,69.045 72.887,69.747 62.585,69.984 C62.514,69.976 62.442,69.971 62.368,69.97 C59.73,70.036 57.087,70.07 54.44,70.073 C51.794,70.07 49.15,70.036 46.512,69.97 C46.439,69.971 46.367,69.976 46.296,69.984 C35.993,69.747 25.667,69.045 15.418,67.9 L16.459,65.259 L16.58,64.952 L22.915,48.895 C24.608,44.597 28.917,41.712 33.635,41.712 L35.005,41.712 Z M54.44,73.875 C54.64,73.876 54.841,73.876 55.041,73.876 C68.297,73.876 81.64,73.095 94.846,71.587 C96.173,75.393 96.887,79.353 96.887,83.395 L96.887,94.936 C96.887,95.79 96.535,96.55 95.996,97.146 L95.69,97.447 C95.435,97.669 95.157,97.866 94.843,98.006 L94.609,98.088 C94.235,98.222 93.839,98.322 93.419,98.322 L45.711,98.322 L15.462,98.322 C15.041,98.322 14.645,98.222 14.271,98.088 L14.038,98.006 C13.723,97.866 13.446,97.669 13.19,97.447 L12.885,97.146 C12.346,96.55 11.994,95.79 11.994,94.936 L11.994,83.395 C11.994,79.353 12.707,75.393 14.035,71.587 C27.241,73.095 40.584,73.876 53.839,73.876 C54.04,73.876 54.24,73.876 54.44,73.875 Z M45.711,102.122 L80.188,102.122 L80.188,104.663 C80.188,107.678 82.702,110.131 85.794,110.131 L93.986,110.131 C97.077,110.131 99.592,107.678 99.592,104.663 L99.592,98.827 C100.336,97.705 100.782,96.374 100.782,94.936 L100.782,83.395 C100.782,78.399 99.85,73.508 98.015,68.855 L97.077,66.478 L99.71,66.478 C101.483,66.478 103.054,65.311 103.527,63.642 L104.238,61.11 C104.568,59.94 104.325,58.715 103.568,57.752 C102.814,56.785 101.667,56.232 100.42,56.232 L93.032,56.232 L89.601,47.53 C87.333,41.779 81.565,37.913 75.246,37.913 L35.005,37.913 L33.635,37.913 C27.315,37.913 21.548,41.779 19.279,47.53 L15.848,56.232 L8.46,56.232 C7.214,56.232 6.067,56.785 5.313,57.752 C4.556,58.715 4.312,59.94 4.643,61.11 L5.353,63.642 C5.827,65.311 7.397,66.478 9.17,66.478 L11.804,66.478 L10.866,68.855 C9.03,73.508 8.099,78.399 8.099,83.395 L8.099,94.936 C8.099,96.374 8.544,97.705 9.289,98.827 L9.289,104.663 C9.289,107.678 11.804,110.131 14.895,110.131 L23.087,110.131 C26.178,110.131 28.693,107.678 28.693,104.663 L28.693,102.122 L45.711,102.122 Z"/>
      <path fill="#FFF" d="M24.921,102.097 L24.921,104.638 C24.921,105.556 24.152,106.307 23.211,106.307 L15.018,106.307 C14.074,106.307 13.308,105.556 13.308,104.638 L13.308,101.742 L13.794,101.857 L14.252,101.967 C14.688,102.046 15.134,102.097 15.585,102.097 L24.921,102.097 Z"/>
      <polygon fill="#FFF" points="8.778 63.314 8.13 60.709 14.016 60.709 12.975 63.347"/>
      <path fill="#FFF" d="M84.082,102.122 L84.082,104.663 C84.082,105.58 84.852,106.331 85.793,106.331 L93.985,106.331 C94.929,106.331 95.696,105.58 95.696,104.663 L95.696,101.766 L95.21,101.881 L94.752,101.991 C94.315,102.07 93.87,102.122 93.418,102.122 L84.082,102.122 Z"/>
      <polygon fill="#FFF" points="99.772 62.636 100.42 60.031 94.534 60.031 95.574 62.669"/>
      <path fill="#1B7" d="M66.143 88.602C67.215 88.602 68.091 89.453 68.091 90.502 68.091 91.55 67.215 92.401 66.143 92.401L48.743 92.401C47.668 92.401 46.796 91.55 46.796 90.502 46.796 89.453 47.668 88.602 48.743 88.602L66.143 88.602zM83.413 80.593C83.413 81.772 84.395 82.73 85.604 82.73 86.807 82.73 87.791 81.772 87.791 80.593 87.791 79.417 86.807 78.459 85.604 78.459 84.395 78.459 83.413 79.417 83.413 80.593zM91.687 80.593C91.687 83.867 88.957 86.529 85.604 86.529 82.245 86.529 79.518 83.867 79.518 80.593 79.518 77.323 82.245 74.66 85.604 74.66 88.957 74.66 91.687 77.323 91.687 80.593zM22.88 80.319C22.88 81.499 23.862 82.456 25.071 82.456 26.274 82.456 27.258 81.499 27.258 80.319 27.258 79.143 26.274 78.186 25.071 78.186 23.862 78.186 22.88 79.143 22.88 80.319zM31.153 80.319C31.153 83.593 28.424 86.256 25.071 86.256 21.712 86.256 18.985 83.593 18.985 80.319 18.985 77.049 21.712 74.386 25.071 74.386 28.424 74.386 31.153 77.049 31.153 80.319zM126.889 47.457C127.178 48.364 126.699 49.332 125.825 49.628L113.574 53.783C112.703 54.081 111.762 53.589 111.476 52.685 111.419 52.506 111.393 52.327 111.393 52.149 111.393 51.426 111.838 50.752 112.539 50.514L124.791 46.358C125.662 46.061 126.603 46.553 126.889 47.457zM96.136 33.712L100.396 45.661C100.704 46.519 100.194 47.429 99.268 47.71 98.344 47.99 97.346 47.525 97.043 46.673L92.784 34.723C92.723 34.555 92.696 34.385 92.696 34.218 92.696 33.535 93.167 32.899 93.911 32.676 94.835 32.395 95.833 32.86 96.136 33.712zM105.16 46.255C105.16 46.023 105.218 45.786 105.343 45.564L111.291 34.955C111.715 34.199 112.738 33.897 113.575 34.279 114.414 34.661 114.749 35.584 114.324 36.341L108.376 46.949C107.951 47.706 106.929 48.008 106.092 47.626 105.5 47.356 105.16 46.815 105.16 46.255zM124.552 64.409C125.326 64.823 125.638 65.821 125.245 66.638 124.854 67.456 123.908 67.782 123.132 67.369L112.255 61.568C111.707 61.276 111.393 60.692 111.393 60.087 111.393 59.835 111.447 59.579 111.563 59.339 111.953 58.521 112.899 58.195 113.676 58.608L124.552 64.409z"/>
      <path fill="#FFF" fill-rule="nonzero" d="M51.327,27.184 C51.327,40.131 40.844,50.626 27.913,50.626 C14.981,50.626 4.499,40.131 4.499,27.184 C4.499,14.238 14.981,3.743 27.913,3.743 C40.844,3.743 51.327,14.238 51.327,27.184 Z"/>
      <path fill="#FFF" d="M27.913,50.626 C40.844,50.626 51.327,40.131 51.327,27.184 C51.327,14.238 40.844,3.743 27.913,3.743 C14.982,3.743 4.499,14.238 4.499,27.184 C4.499,40.131 14.982,50.626 27.913,50.626 Z"/>
      <path fill="#285" d="M54.918,27.184 C54.918,42.115 42.828,54.22 27.913,54.22 C12.997,54.22 0.908,42.115 0.908,27.184 C0.908,12.254 12.997,0.149 27.913,0.149 C42.828,0.149 54.918,12.254 54.918,27.184 Z M27.913,50.626 C40.844,50.626 51.327,40.131 51.327,27.184 C51.327,14.238 40.844,3.743 27.913,3.743 C14.982,3.743 4.499,14.238 4.499,27.184 C4.499,40.131 14.982,50.626 27.913,50.626 Z"/>
      <path fill="#285" fill-rule="nonzero" d="M18.751,33.926 C18.751,33.423 18.763,32.915 18.787,32.402 C18.812,31.888 18.903,31.425 19.061,31.011 C19.219,30.587 19.462,30.247 19.79,29.99 C20.131,29.722 20.605,29.588 21.212,29.588 C21.772,29.588 22.24,29.744 22.616,30.057 C22.993,30.369 23.182,30.788 23.182,31.313 C23.182,31.581 23.163,31.832 23.127,32.067 C23.09,32.29 23.048,32.513 22.999,32.736 C22.951,32.949 22.908,33.15 22.872,33.339 C22.835,33.529 22.817,33.719 22.817,33.909 C22.817,34.4 22.969,34.813 23.273,35.148 C23.577,35.472 23.966,35.74 24.44,35.952 C24.914,36.153 25.443,36.298 26.026,36.388 C26.609,36.477 27.187,36.522 27.758,36.522 C28.402,36.522 29.034,36.46 29.654,36.337 C30.286,36.215 30.846,36.014 31.332,35.734 C31.83,35.444 32.231,35.059 32.535,34.579 C32.839,34.099 32.991,33.507 32.991,32.803 C32.991,32.078 32.809,31.452 32.444,30.928 C32.091,30.392 31.636,29.928 31.077,29.538 C30.517,29.136 29.891,28.789 29.199,28.499 C28.518,28.209 27.855,27.946 27.211,27.712 C26.652,27.5 26.081,27.277 25.497,27.042 C24.926,26.808 24.367,26.54 23.82,26.238 C23.285,25.937 22.78,25.591 22.306,25.2 C21.845,24.809 21.437,24.362 21.085,23.86 C20.732,23.357 20.453,22.782 20.246,22.135 C20.052,21.487 19.954,20.75 19.954,19.924 C19.954,19.109 20.125,18.361 20.465,17.68 C20.817,16.999 21.279,16.396 21.851,15.871 C22.434,15.346 23.103,14.905 23.856,14.548 C24.61,14.19 25.394,13.922 26.208,13.744 L26.208,12.27 C26.208,11.913 26.233,11.589 26.281,11.299 C26.33,10.997 26.421,10.74 26.555,10.528 C26.701,10.316 26.901,10.154 27.156,10.042 C27.412,9.92 27.752,9.858 28.177,9.858 C28.457,9.858 28.712,9.881 28.943,9.925 C29.186,9.97 29.387,10.048 29.545,10.16 C29.715,10.26 29.843,10.405 29.928,10.595 C30.025,10.785 30.074,11.025 30.074,11.315 C30.074,11.617 30.074,11.98 30.074,12.404 C30.074,12.817 30.068,13.219 30.055,13.61 C30.76,13.71 31.49,13.883 32.243,14.129 C32.997,14.364 33.684,14.682 34.304,15.084 C34.936,15.474 35.452,15.955 35.854,16.524 C36.255,17.082 36.455,17.741 36.455,18.5 C36.455,18.802 36.401,19.075 36.291,19.321 C36.182,19.556 36.036,19.751 35.854,19.907 C35.671,20.064 35.459,20.186 35.215,20.276 C34.984,20.354 34.741,20.393 34.486,20.393 C34.243,20.393 33.994,20.348 33.739,20.259 C33.495,20.17 33.271,20.052 33.064,19.907 C32.857,19.751 32.681,19.567 32.535,19.355 C32.401,19.142 32.322,18.908 32.298,18.651 C32.116,18.316 31.873,18.048 31.569,17.847 C31.277,17.646 30.949,17.495 30.584,17.395 C30.22,17.283 29.837,17.211 29.436,17.177 C29.034,17.144 28.645,17.127 28.269,17.127 C27.867,17.127 27.418,17.188 26.919,17.311 C26.433,17.423 25.971,17.602 25.534,17.847 C25.108,18.082 24.75,18.383 24.458,18.752 C24.178,19.12 24.039,19.55 24.039,20.041 C24.039,20.644 24.191,21.18 24.494,21.649 C24.81,22.107 25.218,22.52 25.716,22.888 C26.227,23.257 26.81,23.597 27.466,23.91 C28.123,24.212 28.797,24.507 29.49,24.798 C30.062,25.032 30.645,25.289 31.241,25.568 C31.848,25.836 32.432,26.138 32.991,26.473 C33.562,26.796 34.091,27.165 34.577,27.578 C35.076,27.98 35.507,28.438 35.872,28.951 C36.249,29.465 36.54,30.04 36.747,30.676 C36.966,31.302 37.075,32.005 37.075,32.787 C37.075,33.847 36.869,34.791 36.455,35.617 C36.054,36.443 35.513,37.158 34.833,37.761 C34.152,38.353 33.368,38.838 32.48,39.218 C31.605,39.587 30.688,39.843 29.727,39.989 L29.727,42.065 C29.727,42.423 29.703,42.752 29.654,43.053 C29.606,43.355 29.508,43.612 29.363,43.824 C29.229,44.047 29.028,44.215 28.761,44.326 C28.506,44.449 28.171,44.511 27.758,44.511 C27.175,44.511 26.707,44.41 26.354,44.209 C26.002,44.008 25.825,43.617 25.825,43.037 C25.825,42.869 25.825,42.663 25.825,42.417 C25.825,42.183 25.825,41.931 25.825,41.663 C25.825,41.395 25.825,41.116 25.825,40.826 C25.838,40.547 25.85,40.279 25.862,40.022 C24.938,39.899 24.045,39.681 23.182,39.369 C22.331,39.067 21.577,38.665 20.921,38.163 C20.264,37.661 19.736,37.058 19.334,36.354 C18.945,35.651 18.751,34.841 18.751,33.926 Z"/>
    </g>
    <rect width="200" height="200"/>
  </g>
</svg>
