<svg xmlns="http://www.w3.org/2000/svg" xmlns:xlink="http://www.w3.org/1999/xlink" width="200" height="200" viewBox="0 0 200 200">
  <defs>
    <polygon id="icon-salario-a" points=".135 .258 55.105 .258 55.105 30.46 .135 30.46"/>
    <polygon id="icon-salario-c" points="0 .944 89.032 .944 89.032 64.302 0 64.302"/>
    <polygon id="icon-salario-e" points=".934 .349 45.45 .349 45.45 24.574 .934 24.574"/>
  </defs>
  <g fill="none" fill-rule="evenodd">
    <rect width="200" height="200"/>
    <g transform="translate(37 45)">
      <g transform="translate(15.5 19.581)">
        <path fill="#1B7" d="M29.48,16.3489488 L7.4125,16.3489488 C3.2575,16.3489488 0,19.6216 0,23.8034605 L3.71,23.8034605 C3.71,21.6786233 5.3025,20.0762047 7.4125,20.0762047 L25.755,20.0762047 L29.48,16.3489488 Z"/>
        <polygon fill="#1B7" points="55.814 16.349 59.522 20.076 76.047 20.076 76.047 29.392 79.757 29.392 79.757 16.349"/>
        <g transform="translate(15 .253)">
          <mask id="icon-salario-b" fill="#fff">
            <use xlink:href="#icon-salario-a"/>
          </mask>
          <polygon fill="#1B7" points="2.753 30.46 .135 27.821 27.678 .258 55.105 27.823 52.483 30.458 27.673 5.525" mask="url(#icon-salario-b)"/>
        </g>
        <path fill="#1B7" d="M30.97525,30.7111907 L28.35275,28.076493 L38.74025,17.6356558 L40.05275,18.9542605 C41.93775,20.8480279 43.41025,20.8505395 45.29775,18.9517488 L46.61275,17.6306326 L56.96025,28.0790047 L54.33025,30.7086791 L46.49525,22.7970512 C44.00775,24.5350977 41.33775,24.5350977 38.85025,22.7970512 L30.97525,30.7111907 Z"/>
        <g transform="translate(0 22.858)">
          <mask id="icon-salario-d" fill="#fff">
            <use xlink:href="#icon-salario-c"/>
          </mask>
          <path fill="#1B7" d="M85.32225,60.5753209 L7.41975,60.5753209 C5.30475,60.5753209 3.70975,58.9729023 3.70975,56.8480651 L3.70975,7.43178605 C4.79475,8.04713488 6.05975,8.39876279 7.41975,8.39876279 L85.32225,8.39876279 L85.32225,21.4416465 L89.03225,21.4416465 L89.03225,4.67150698 L7.41975,4.67150698 C5.30475,4.67150698 3.70975,3.06908837 3.70975,0.944251163 L-0.00025,0.944251163 L-0.00025,56.8480651 C-0.00025,61.0299256 3.25725,64.3025767 7.41975,64.3025767 L89.03225,64.3025767 L89.03225,45.6662977 L85.32225,45.6662977 L85.32225,60.5753209 Z" mask="url(#icon-salario-d)"/>
        </g>
        <g transform="translate(51 43.951)">
          <mask id="icon-salario-f" fill="#fff">
            <use xlink:href="#icon-salario-e"/>
          </mask>
          <path fill="#1B7" d="M12.99175,4.07663256 C8.38925,4.07663256 4.64425,7.83905116 4.64425,12.4629581 C4.64425,17.0868651 8.38925,20.8467721 12.99175,20.8467721 L39.88675,20.8467721 C40.90925,20.8467721 41.74175,20.0104 41.74175,18.9856558 L41.74175,5.94026047 C41.74175,4.91300465 40.90925,4.07663256 39.88675,4.07663256 L12.99175,4.07663256 Z M39.88675,24.5740279 L12.99175,24.5740279 C6.34425,24.5740279 0.93425,19.1413767 0.93425,12.4629581 C0.93425,5.78453953 6.34425,0.349376744 12.99175,0.349376744 L39.88675,0.349376744 C42.95425,0.349376744 45.45175,2.85849302 45.45175,5.94026047 L45.45175,18.9856558 C45.45175,22.0674233 42.95425,24.5740279 39.88675,24.5740279 L39.88675,24.5740279 Z" mask="url(#icon-salario-f)"/>
        </g>
        <path fill="#1B7" d="M59.35425,56.4136837 C59.35425,53.8417767 61.43175,51.754614 63.99175,51.754614 C66.55175,51.754614 68.62925,53.8417767 68.62925,56.4136837 C68.62925,58.9855907 66.55175,61.0727535 63.99175,61.0727535 C61.43175,61.0727535 59.35425,58.9855907 59.35425,56.4136837"/>
        <path fill="#1B7" d="M63.99175,53.6174884 C62.45675,53.6174884 61.20925,54.8733023 61.20925,56.4129302 C61.20925,57.9550698 62.45675,59.2083721 63.99175,59.2083721 C65.52675,59.2083721 66.77425,57.9550698 66.77425,56.4129302 C66.77425,54.8733023 65.52675,53.6174884 63.99175,53.6174884 M63.99175,62.9356279 C60.41175,62.9356279 57.49925,60.0095814 57.49925,56.4129302 C57.49925,52.8187907 60.41175,49.8927442 63.99175,49.8927442 C67.57175,49.8927442 70.48425,52.8187907 70.48425,56.4129302 C70.48425,60.0095814 67.57175,62.9356279 63.99175,62.9356279"/>
      </g>
      <path fill="#FFF" fill-rule="nonzero" d="M51.327,27.3104372 C51.327,40.3176558 40.844,50.8614698 27.913,50.8614698 C14.981,50.8614698 4.499,40.3176558 4.499,27.3104372 C4.499,14.3042233 14.981,3.7604093 27.913,3.7604093 C40.844,3.7604093 51.327,14.3042233 51.327,27.3104372 Z"/>
      <path fill="#FFF" d="M27.913,50.8614698 C40.844,50.8614698 51.327,40.3176558 51.327,27.3104372 C51.327,14.3042233 40.844,3.7604093 27.913,3.7604093 C14.982,3.7604093 4.499,14.3042233 4.499,27.3104372 C4.499,40.3176558 14.982,50.8614698 27.913,50.8614698 Z"/>
      <path fill="#285" d="M54.918,27.3104372 C54.918,42.3108837 42.828,54.472186 27.913,54.472186 C12.997,54.472186 0.908,42.3108837 0.908,27.3104372 C0.908,12.3109953 12.997,0.149693023 27.913,0.149693023 C42.828,0.149693023 54.918,12.3109953 54.918,27.3104372 Z M27.913,50.8614698 C40.844,50.8614698 51.327,40.3176558 51.327,27.3104372 C51.327,14.3042233 40.844,3.7604093 27.913,3.7604093 C14.982,3.7604093 4.499,14.3042233 4.499,27.3104372 C4.499,40.3176558 14.982,50.8614698 27.913,50.8614698 Z"/>
      <path fill="#285" fill-rule="nonzero" d="M18.751,34.0837953 C18.751,33.5784558 18.763,33.068093 18.787,32.552707 C18.812,32.0363163 18.903,31.5711628 19.061,31.1552372 C19.219,30.7292651 19.462,30.3876837 19.79,30.1294884 C20.131,29.8602419 20.605,29.7256186 21.212,29.7256186 C21.772,29.7256186 22.24,29.8823442 22.616,30.1968 C22.993,30.5102512 23.182,30.9312 23.182,31.4586419 C23.182,31.7278884 23.163,31.9800558 23.127,32.2161488 C23.09,32.440186 23.048,32.6642233 22.999,32.8882605 C22.951,33.1022512 22.908,33.304186 22.872,33.4940651 C22.835,33.6849488 22.817,33.8758326 22.817,34.0667163 C22.817,34.56 22.969,34.9749209 23.273,35.3114791 C23.577,35.636986 23.966,35.9062326 24.44,36.1192186 C24.914,36.3211535 25.443,36.4668279 26.026,36.5572465 C26.609,36.6466605 27.187,36.6918698 27.758,36.6918698 C28.402,36.6918698 29.034,36.6295814 29.654,36.5060093 C30.286,36.3834419 30.846,36.181507 31.332,35.9002047 C31.83,35.6088558 32.231,35.2220651 32.535,34.7398326 C32.839,34.2576 32.991,33.6628465 32.991,32.9555721 C32.991,32.2272 32.809,31.5982884 32.444,31.0718512 C32.091,30.5333581 31.636,30.0672 31.077,29.675386 C30.517,29.2715163 29.891,28.9229023 29.199,28.6315535 C28.518,28.3402047 27.855,28.0759814 27.211,27.840893 C26.652,27.627907 26.081,27.4038698 25.497,27.1677767 C24.926,26.9326884 24.367,26.6634419 23.82,26.3600372 C23.285,26.0576372 22.78,25.7100279 22.306,25.3172093 C21.845,24.9243907 21.437,24.4753116 21.085,23.9709767 C20.732,23.4656372 20.453,22.8879628 20.246,22.2379535 C20.052,21.5869395 19.954,20.8465116 19.954,20.0166698 C19.954,19.1978791 20.125,18.4464 20.465,17.7622326 C20.817,17.0780651 21.279,16.4722605 21.851,15.9448186 C22.434,15.4173767 23.103,14.9743256 23.856,14.6156651 C24.61,14.256 25.394,13.9867535 26.208,13.8079256 L26.208,12.3270698 C26.208,11.9684093 26.233,11.6429023 26.281,11.3515535 C26.33,11.0481488 26.421,10.7899535 26.555,10.5769674 C26.701,10.3639814 26.901,10.2012279 27.156,10.088707 C27.412,9.96613953 27.752,9.90385116 28.177,9.90385116 C28.457,9.90385116 28.712,9.92695814 28.943,9.97116279 C29.186,10.0163721 29.387,10.0947349 29.545,10.2072558 C29.715,10.3077209 29.843,10.4533953 29.928,10.6442791 C30.025,10.8351628 30.074,11.0762791 30.074,11.3676279 C30.074,11.6710326 30.074,12.0357209 30.074,12.461693 C30.074,12.876614 30.068,13.2804837 30.055,13.6733023 C30.76,13.7737674 31.49,13.9475721 32.243,14.1947163 C32.997,14.4308093 33.684,14.7502884 34.304,15.1541581 C34.936,15.5459721 35.452,16.0292093 35.854,16.6008558 C36.255,17.1614512 36.455,17.8235163 36.455,18.5860465 C36.455,18.8894512 36.401,19.1637209 36.291,19.4108651 C36.182,19.6469581 36.036,19.8428651 35.854,19.9995907 C35.671,20.1573209 35.459,20.2798884 35.215,20.370307 C34.984,20.4486698 34.741,20.4878512 34.486,20.4878512 C34.243,20.4878512 33.994,20.4426419 33.739,20.3532279 C33.495,20.263814 33.271,20.1452651 33.064,19.9995907 C32.857,19.8428651 32.681,19.6580093 32.535,19.4450233 C32.401,19.2310326 32.322,18.9959442 32.298,18.7377488 C32.116,18.4011907 31.873,18.1319442 31.569,17.9300093 C31.277,17.7280744 30.949,17.5763721 30.584,17.475907 C30.22,17.363386 29.837,17.2910512 29.436,17.256893 C29.034,17.2237395 28.645,17.2066605 28.269,17.2066605 C27.867,17.2066605 27.418,17.2679442 26.919,17.3915163 C26.433,17.5040372 25.971,17.6838698 25.534,17.9300093 C25.108,18.1661023 24.75,18.4685023 24.458,18.8392186 C24.178,19.2089302 24.039,19.6409302 24.039,20.134214 C24.039,20.7400186 24.191,21.2785116 24.494,21.749693 C24.81,22.2098233 25.218,22.6247442 25.716,22.9944558 C26.227,23.3651721 26.81,23.7067535 27.466,24.0212093 C28.123,24.324614 28.797,24.620986 29.49,24.9133395 C30.062,25.1484279 30.645,25.4066233 31.241,25.6869209 C31.848,25.9561674 32.432,26.2595721 32.991,26.5961302 C33.562,26.9206326 34.091,27.2913488 34.577,27.7062698 C35.076,28.1101395 35.507,28.5702698 35.872,29.0856558 C36.249,29.6020465 36.54,30.1797209 36.747,30.8186791 C36.966,31.4475907 37.075,32.1538605 37.075,32.9394977 C37.075,34.0044279 36.869,34.9528186 36.455,35.7826605 C36.054,36.6125023 35.513,37.3308279 34.833,37.9366326 C34.152,38.531386 33.368,39.0186419 32.48,39.4004093 C31.605,39.7711256 30.688,40.0283163 29.727,40.1749953 L29.727,42.2606512 C29.727,42.6203163 29.703,42.9508465 29.654,43.2532465 C29.606,43.5566512 29.508,43.8148465 29.363,44.0278326 C29.229,44.2518698 29.028,44.4206512 28.761,44.5321674 C28.506,44.6557395 28.171,44.7180279 27.758,44.7180279 C27.175,44.7180279 26.707,44.6165581 26.354,44.4146233 C26.002,44.2126884 25.825,43.8198698 25.825,43.2371721 C25.825,43.0683907 25.825,42.8614326 25.825,42.6142884 C25.825,42.3792 25.825,42.1260279 25.825,41.8567814 C25.825,41.5875349 25.825,41.3072372 25.825,41.0158884 C25.838,40.7355907 25.85,40.4663442 25.862,40.2081488 C24.938,40.0845767 24.045,39.8655628 23.182,39.5521116 C22.331,39.248707 21.577,38.8448372 20.921,38.3405023 C20.264,37.8361674 19.736,37.2303628 19.334,36.5230884 C18.945,35.8168186 18.751,35.0030512 18.751,34.0837953 Z"/>
    </g>
    <rect width="200" height="200"/>
  </g>
</svg>
