<svg xmlns="http://www.w3.org/2000/svg" width="200" height="200" viewBox="0 0 200 200">
  <g fill="none" fill-rule="evenodd">
    <g transform="translate(31 47)">
      <path fill="#1B7" d="M125.406,7.01 C121.396,7.01 118.049,9.817 117.207,13.575 C117.072,14.178 116.636,14.67 116.054,14.876 C115.471,15.082 114.824,14.974 114.34,14.59 C113.331,13.79 112.094,13.313 110.738,13.313 C107.505,13.313 104.884,15.932 104.884,19.165 C104.884,19.836 105.024,20.506 105.268,21.181 C105.606,22.114 105.123,23.145 104.191,23.483 C103.259,23.82 102.229,23.338 101.892,22.405 C101.539,21.429 101.293,20.341 101.293,19.165 C101.293,13.941 105.527,9.719 110.738,9.719 C112.072,9.719 113.329,10.002 114.464,10.501 C116.34,6.326 120.526,3.416 125.406,3.416 C132.03,3.416 137.401,8.788 137.401,15.412 C137.401,22.036 132.03,27.407 125.406,27.407 C125.136,27.407 124.868,27.397 124.603,27.379 C124.142,32.165 120.108,35.908 115.205,35.908 C112.252,35.908 109.664,34.534 107.946,32.46 C107.313,31.696 107.419,30.563 108.182,29.93 C108.945,29.296 110.077,29.402 110.71,30.166 C111.8,31.481 113.402,32.314 115.205,32.314 C118.436,32.314 121.056,29.691 121.056,26.462 C121.056,26.201 121.02,25.925 120.957,25.529 C120.862,24.929 121.076,24.321 121.527,23.914 C121.977,23.506 122.603,23.355 123.19,23.51 C123.917,23.703 124.657,23.813 125.406,23.813 C130.049,23.813 133.81,20.048 133.81,15.412 C133.81,10.775 130.049,7.01 125.406,7.01 Z"/>
      <polygon fill="#1B7" points="31.106 104.388 31.106 68.376 34.697 68.376 34.697 104.388"/>
      <path fill="#1B7" d="M86.686,27.4 C86.686,26.407 87.49,25.602 88.482,25.602 L102.797,25.602 C103.788,25.602 104.592,26.407 104.592,27.4 L104.592,104.1 L101.001,104.1 L101.001,29.197 L90.277,29.197 L90.277,40.651 L86.686,40.651 L86.686,27.4 Z"/>
      <polygon fill="#1B7" points="114.714 105.832 20.79 105.832 20.79 102.238 114.714 102.238"/>
      <path fill="#1B7" d="M43.159 73.084C43.159 72.091 43.963 71.287 44.955 71.287L62.093 71.287C63.085 71.287 63.888 72.091 63.888 73.084L63.888 90.214C63.888 91.207 63.085 92.011 62.093 92.011L44.955 92.011C43.963 92.011 43.159 91.207 43.159 90.214L43.159 73.084zM46.75 74.881L46.75 88.417 60.297 88.417 60.297 74.881 46.75 74.881zM73.308 74.202C73.308 73.21 74.111 72.405 75.103 72.405L90.906 72.405C91.898 72.405 92.702 73.21 92.702 74.202L92.702 103.601C92.702 104.589 91.904 105.392 90.917 105.398L75.114 105.491035C74.636 105.494 74.176 105.306 73.837 104.968 73.498 104.631 73.308 104.172 73.308 103.694L73.308 74.202zM76.899 75.999L76.899 101.886 89.111 101.814 89.111 75.999 76.899 75.999z"/>
      <path fill="#FFF" d="M69.915,25.627 C68.596,24.58 66.727,24.59 65.42,25.651 L18.534,63.72 L26.076,73.429 L65.391,41.25 C66.711,40.171 68.607,40.168 69.929,41.244 L109.497,73.429 L117.862,63.72 L69.915,25.627 Z"/>
      <path fill="#1B7" d="M68.799,27.035 C68.139,26.511 67.205,26.516 66.551,27.047 L21.031,64.006 L26.364,70.871 L64.255,39.859 C66.234,38.239 69.078,38.235 71.062,39.849 L109.276,70.933 L115.281,63.963 L68.799,27.035 Z M64.289,24.256 C66.25,22.663 69.053,22.648 71.031,24.22 L118.978,62.312 C119.361,62.616 119.604,63.063 119.65,63.551 C119.696,64.038 119.541,64.523 119.222,64.893 L110.857,74.602 C110.223,75.338 109.119,75.436 108.365,74.823 L68.797,42.638 C68.136,42.1 67.188,42.102 66.528,42.642 L27.213,74.82 C26.838,75.126 26.356,75.269 25.875,75.214 C25.394,75.16 24.956,74.914 24.659,74.532 L17.116,64.823 C16.517,64.05 16.644,62.94 17.403,62.324 L64.289,24.256 Z"/>
      <path fill="#FFF" fill-rule="nonzero" d="M51.287,27.184 C51.287,40.131 40.804,50.626 27.873,50.626 C14.942,50.626 4.459,40.131 4.459,27.184 C4.459,14.238 14.942,3.743 27.873,3.743 C40.804,3.743 51.287,14.238 51.287,27.184 Z"/>
      <path fill="#285" d="M54.878,27.184 C54.878,42.115 42.788,54.22 27.873,54.22 C12.957,54.22 0.868,42.115 0.868,27.184 C0.868,12.254 12.957,0.149 27.873,0.149 C42.788,0.149 54.878,12.254 54.878,27.184 Z M27.873,50.626 C40.804,50.626 51.287,40.131 51.287,27.184 C51.287,14.238 40.804,3.743 27.873,3.743 C14.942,3.743 4.459,14.238 4.459,27.184 C4.459,40.131 14.942,50.626 27.873,50.626 Z"/>
      <path fill="#285" fill-rule="nonzero" d="M18.711,33.926 C18.711,33.423 18.723,32.915 18.747,32.402 C18.771,31.888 18.863,31.425 19.021,31.011 C19.179,30.587 19.422,30.247 19.75,29.99 C20.09,29.722 20.564,29.588 21.172,29.588 C21.731,29.588 22.199,29.744 22.576,30.057 C22.953,30.369 23.141,30.788 23.141,31.313 C23.141,31.581 23.123,31.832 23.087,32.067 C23.05,32.29 23.008,32.513 22.959,32.736 C22.91,32.949 22.868,33.15 22.831,33.339 C22.795,33.529 22.777,33.719 22.777,33.909 C22.777,34.4 22.929,34.813 23.232,35.148 C23.536,35.472 23.925,35.74 24.399,35.952 C24.873,36.153 25.402,36.298 25.986,36.388 C26.569,36.477 27.147,36.522 27.718,36.522 C28.362,36.522 28.994,36.46 29.614,36.337 C30.246,36.215 30.805,36.014 31.291,35.734 C31.79,35.444 32.191,35.059 32.495,34.579 C32.799,34.099 32.951,33.507 32.951,32.803 C32.951,32.078 32.768,31.452 32.404,30.928 C32.051,30.392 31.595,29.928 31.036,29.538 C30.477,29.136 29.851,28.789 29.158,28.499 C28.478,28.209 27.815,27.946 27.171,27.712 C26.612,27.5 26.04,27.277 25.457,27.042 C24.886,26.808 24.326,26.54 23.779,26.238 C23.245,25.937 22.74,25.591 22.266,25.2 C21.804,24.809 21.397,24.362 21.045,23.86 C20.692,23.357 20.412,22.782 20.206,22.135 C20.011,21.487 19.914,20.75 19.914,19.924 C19.914,19.109 20.084,18.361 20.425,17.68 C20.777,16.999 21.239,16.396 21.81,15.871 C22.394,15.346 23.062,14.905 23.816,14.548 C24.57,14.19 25.354,13.922 26.168,13.744 L26.168,12.27 C26.168,11.913 26.192,11.589 26.241,11.299 C26.29,10.997 26.381,10.74 26.514,10.528 C26.66,10.316 26.861,10.154 27.116,10.042 C27.371,9.92 27.712,9.858 28.137,9.858 C28.417,9.858 28.672,9.881 28.903,9.925 C29.146,9.97 29.347,10.048 29.505,10.16 C29.675,10.26 29.802,10.405 29.888,10.595 C29.985,10.785 30.033,11.025 30.033,11.315 C30.033,11.617 30.033,11.98 30.033,12.404 C30.033,12.817 30.027,13.219 30.015,13.61 C30.72,13.71 31.45,13.883 32.203,14.129 C32.957,14.364 33.644,14.682 34.263,15.084 C34.896,15.474 35.412,15.955 35.813,16.524 C36.214,17.082 36.415,17.741 36.415,18.5 C36.415,18.802 36.36,19.075 36.251,19.321 C36.141,19.556 35.996,19.751 35.813,19.907 C35.631,20.064 35.418,20.186 35.175,20.276 C34.944,20.354 34.701,20.393 34.446,20.393 C34.203,20.393 33.954,20.348 33.698,20.259 C33.455,20.17 33.23,20.052 33.024,19.907 C32.817,19.751 32.641,19.567 32.495,19.355 C32.361,19.142 32.282,18.908 32.258,18.651 C32.076,18.316 31.832,18.048 31.529,17.847 C31.237,17.646 30.909,17.495 30.544,17.395 C30.179,17.283 29.796,17.211 29.395,17.177 C28.994,17.144 28.605,17.127 28.228,17.127 C27.827,17.127 27.377,17.188 26.879,17.311 C26.393,17.423 25.931,17.602 25.493,17.847 C25.068,18.082 24.709,18.383 24.418,18.752 C24.138,19.12 23.998,19.55 23.998,20.041 C23.998,20.644 24.15,21.18 24.454,21.649 C24.77,22.107 25.177,22.52 25.676,22.888 C26.186,23.257 26.77,23.597 27.426,23.91 C28.082,24.212 28.757,24.507 29.45,24.798 C30.021,25.032 30.605,25.289 31.2,25.568 C31.808,25.836 32.392,26.138 32.951,26.473 C33.522,26.796 34.051,27.165 34.537,27.578 C35.035,27.98 35.467,28.438 35.832,28.951 C36.208,29.465 36.5,30.04 36.707,30.676 C36.926,31.302 37.035,32.005 37.035,32.787 C37.035,33.847 36.828,34.791 36.415,35.617 C36.014,36.443 35.473,37.158 34.792,37.761 C34.112,38.353 33.328,38.838 32.44,39.218 C31.565,39.587 30.647,39.843 29.687,39.989 L29.687,42.065 C29.687,42.423 29.663,42.752 29.614,43.053 C29.565,43.355 29.468,43.612 29.322,43.824 C29.189,44.047 28.988,44.215 28.721,44.326 C28.465,44.449 28.131,44.511 27.718,44.511 C27.134,44.511 26.666,44.41 26.314,44.209 C25.961,44.008 25.785,43.617 25.785,43.037 C25.785,42.869 25.785,42.663 25.785,42.417 C25.785,42.183 25.785,41.931 25.785,41.663 C25.785,41.395 25.785,41.116 25.785,40.826 C25.797,40.547 25.809,40.279 25.822,40.022 C24.898,39.899 24.004,39.681 23.141,39.369 C22.29,39.067 21.537,38.665 20.88,38.163 C20.224,37.661 19.695,37.058 19.294,36.354 C18.905,35.651 18.711,34.841 18.711,33.926 Z"/>
    </g>
    <rect width="200" height="200"/>
  </g>
</svg>
